<?xml version="1.0" encoding="UTF-8"?>
<svg viewBox="0 0 300 300" xmlns="http://www.w3.org/2000/svg">

<title>eForm mimetype icon</title>

<rect x="37.575279" y="37.575279"
      width="114.84944" height="224.8494"
      rx="25.522099" ry="24.983265"
      fill="#a8d68a"
      stroke="#a8d68a"
      stroke-width="15.1506"/>

<g fill="none" stroke="#000" stroke-linecap="round">
  <path stroke-width="20" d="M92.812498 85.843281H137.1352"/>
  <path stroke-width="20" d="M92.8125 116.92942h44.3227"/>
  <path stroke-width="20" d="M92.812498 147.77228H137.1352"/>
  <path stroke-width="20" d="M169.0527 85.784221h44.3227"/>
  <path stroke-width="20" d="M169.0527 116.87036h44.3227"/>
  <path stroke-width="10" d="M207.51653 16.698803l75.77166 66.249361"/>
</g>

<rect x="14.984463" y="14.984463"
      width="271.0311" height="271.03107"
      rx="22.585922" ry="22.585922"
      fill="none"
      stroke="#000"
      stroke-width="9.96893"/>

<path fill="#e67600"
      stroke="#000"
      stroke-width="2.13227"
      transform="scale(1.0024253 .99758054)"
      d="m105.13963 267.58142q-11.192982 0-19.858518-3.61064-8.485004-3.79117-14.44256-10.29032-5.777024-6.67968-8.846068-15.70628-3.069043-9.20714-3.069043-20.03906 0-11.37351 3.069043-20.58064 3.249576-9.20714 9.0266-15.52576 5.957556-6.31862 14.081496-9.74872 8.304472-3.43011 18.41426-3.43011 10.1098 0 18.23374 3.06904 8.12394 3.06905 13.72043 8.84607 5.77702 5.59649 8.84607 13.72043 3.06904 8.12394 3.06904 18.0532v6.13809H87.989092v7.22128q0 12.09564 6.31862 18.23373 6.318618 6.13809 16.789478 6.13809 9.74873 0 15.70628-4.33277 5.95756-4.5133 8.48501-10.83192l9.92926 5.95756q-1.62479 4.5133-4.69384 9.20713-3.06904 4.69383-7.9434 8.66554-4.87437 3.79117-11.73458 6.31862-6.86022 2.52744-15.70629 2.52744zM87.989092 207.1032H119.0406v-2.52744q0-12.99831-4.15224-18.23374-4.15224-5.23542-11.37352-5.23542-7.221276 0-11.373512 5.23542-4.152236 5.23543-4.152236 18.23374zm72.754548 46.39673h12.63724V151.31882H160.74364V139.4037h100.55632v33.57896h-20.94171v-20.58065h-37.73119v43.50821h23.83023V185.0783h13.35936v34.66214h-13.35936v-10.83192h-23.83023v44.59141h17.15054v11.91511h-59.03396z"/>

<metadata>
<rdf:RDF xmlns:rdf="http://www.w3.org/1999/02/22-rdf-syntax-ns#"
         xmlns:cc="http://creativecommons.org/ns#"
         xmlns:dc="http://purl.org/dc/elements/1.1/">

<cc:Work rdf:about="">
<dc:title>eForm mimetype icon</dc:title>
<dc:creator>
<cc:Agent>
<dc:title>Marco Jehnichen</dc:title>
</cc:Agent>
</dc:creator>
<cc:license rdf:resource="http://creativecommons.org/licenses/by/4.0/"/>
</cc:Work>

</rdf:RDF>
</metadata>

</svg>
